<?xml version="1.0" standalone="no"?>
<!DOCTYPE svg PUBLIC "-//W3C//DTD SVG 20010904//EN"
 "http://www.w3.org/TR/2001/REC-SVG-20010904/DTD/svg10.dtd">
<svg version="1.0" xmlns="http://www.w3.org/2000/svg"
 width="260.000000pt" height="260.000000pt" viewBox="0 0 260.000000 260.000000"
 preserveAspectRatio="xMidYMid meet">
<metadata>
Created by potrace 1.11, written by Peter Selinger 2001-2013
</metadata>
<g transform="translate(0.000000,260.000000) scale(0.100000,-0.100000)"
fill="#000000" stroke="none">
<path d="M0 1300 l0 -1300 1300 0 1300 0 0 1300 0 1300 -1300 0 -1300 0 0
-1300z m1515 875 c112 -24 207 -75 284 -152 118 -119 161 -227 161 -402 0 -83
-5 -120 -23 -172 -58 -170 -188 -304 -360 -368 -24 -9 -26 -14 -17 -31 6 -10
102 -148 215 -306 113 -157 205 -288 205 -290 0 -2 -299 -4 -665 -4 l-665 0 0
870 0 870 398 0 c311 0 412 -4 467 -15z"/>
<path d="M817 2087 c4 -8 136 -193 293 -411 157 -219 303 -423 325 -454 30
-42 48 -58 68 -60 47 -6 156 55 227 127 99 100 140 200 140 342 0 225 -150
407 -375 454 -98 21 -690 22 -678 2z"/>
<path d="M742 1583 l3 -438 305 -3 c168 -1 311 0 319 3 11 5 11 8 -1 23 -9 9
-149 204 -313 432 -163 228 -301 417 -306 418 -6 2 -8 -164 -7 -435z"/>
<path d="M740 795 l0 -255 531 0 c462 0 530 2 526 15 -4 8 -84 122 -178 255
l-173 240 -353 0 -353 0 0 -255z"/>
</g>
</svg>
